<?xml version="1.0" standalone="no"?>
<!DOCTYPE svg PUBLIC "-//W3C//DTD SVG 20010904//EN"
 "http://www.w3.org/TR/2001/REC-SVG-20010904/DTD/svg10.dtd">
<svg version="1.0" xmlns="http://www.w3.org/2000/svg"
 width="990.000000pt" height="990.000000pt" viewBox="0 0 990.000000 990.000000"
 preserveAspectRatio="xMidYMid meet">
<metadata>
Created by potrace 1.11, written by Peter Selinger 2001-2013
</metadata>
<g transform="translate(0.000000,990.000000) scale(0.100000,-0.100000)"
fill="#000000" stroke="none">
<path d="M250 4950 l0 -4950 4694 0 c3746 0 4695 3 4698 13 2 6 3 2233 3 4947
l-1 4935 -4697 3 -4697 2 0 -4950z m9027 4611 l31 -1 0 -4603 c0 -2532 -3
-4608 -6 -4613 -5 -6 -1576 -10 -4359 -9 l-4353 0 0 4612 0 4612 23 3 c17 2
8546 1 8664 -1z"/>
<path d="M1230 7941 l0 -996 188 2 c103 1 203 2 223 2 l37 1 0 578 c1 317 1
587 1 600 1 30 -13 46 236 -263 115 -143 244 -303 287 -355 42 -52 159 -196
259 -320 99 -124 185 -229 190 -234 6 -7 273 -12 367 -7 9 1 12 207 12 994 l0
994 -225 0 -225 0 -2 -600 -3 -600 -310 384 c-170 211 -388 480 -484 599
l-173 215 -189 1 -189 2 0 -997z"/>
<path d="M3620 7943 c0 -787 3 -993 13 -994 15 0 1466 0 1490 0 16 1 17 17 17
185 l0 183 -512 1 c-282 0 -523 1 -535 1 l-23 1 0 228 0 229 450 0 c248 0 453
2 456 6 5 4 8 235 5 333 -1 21 -1 21 -433 22 -238 0 -443 1 -455 1 l-23 1 0
215 0 215 515 0 c336 0 515 3 516 10 0 6 1 75 1 155 0 80 -1 158 -1 173 l-1
29 -740 0 -740 0 0 -994z"/>
<path d="M5430 8933 c0 -5 159 -378 192 -451 10 -24 68 -158 128 -298 60 -140
116 -269 124 -287 8 -17 28 -63 44 -102 77 -181 345 -803 356 -822 11 -22 14
-19 49 50 21 39 57 108 81 152 23 44 118 222 211 395 164 309 210 393 308 575
26 50 54 102 60 118 6 15 14 27 17 27 3 0 27 -42 53 -92 82 -161 182 -350 337
-643 20 -38 76 -144 123 -235 206 -397 195 -377 205 -350 6 14 177 414 382
890 347 807 460 1070 460 1075 0 1 -704 2 -1565 2 -861 0 -1565 -2 -1565 -4z"/>
<path d="M7715 6419 c-368 -50 -592 -267 -579 -561 3 -91 11 -126 44 -193 33
-68 58 -98 125 -150 102 -77 204 -116 490 -186 188 -46 252 -68 307 -105 92
-64 90 -196 -4 -254 -109 -68 -370 -74 -567 -15 -66 20 -210 86 -250 114 -16
12 -33 21 -38 21 -5 0 -39 -68 -77 -150 l-67 -151 23 -19 c57 -48 273 -136
376 -155 15 -2 52 -9 82 -15 87 -18 343 -21 440 -6 177 28 341 106 433 206 80
88 137 232 131 335 -8 140 -41 221 -124 306 -102 104 -243 162 -580 239 -245
56 -331 111 -332 212 -1 61 24 108 79 145 67 45 120 56 258 56 159 0 316 -40
460 -117 16 -8 33 -12 36 -8 4 4 34 75 67 157 l60 150 -76 37 c-162 77 -301
108 -507 113 -77 2 -171 -1 -210 -6z"/>
<path d="M1230 5505 l0 -895 448 1 c485 1 561 6 697 44 319 90 546 307 619
591 26 101 28 116 31 239 8 319 -124 583 -373 749 -65 42 -156 88 -202 101 -3
0 -30 8 -60 17 -136 41 -220 47 -712 48 l-448 0 0 -895z"/>
<path d="M3454 5505 l0 -895 693 0 693 0 -2 167 -3 166 -485 1 -485 1 0 195
c-1 107 1 200 2 206 3 7 128 11 406 12 221 0 407 1 412 1 6 1 10 60 10 159 l0
157 -410 0 c-226 0 -412 3 -415 7 -3 3 -5 91 -5 195 l0 188 450 2 c248 1 459
2 471 2 19 1 20 7 20 166 l0 165 -676 0 -676 0 0 -895z"/>
<path d="M5154 6158 c73 -134 146 -268 163 -298 17 -30 44 -80 61 -110 16 -30
41 -75 54 -100 14 -25 42 -76 63 -115 21 -38 59 -108 85 -155 26 -47 64 -116
85 -155 21 -38 57 -104 80 -145 23 -41 61 -111 85 -155 86 -160 114 -211 132
-237 10 -14 18 -33 18 -41 0 -8 6 -19 13 -25 15 -13 14 -14 77 103 23 44 84
157 135 250 51 94 108 199 127 235 47 86 94 174 128 235 31 56 53 97 200 370
56 105 149 276 206 382 57 105 104 194 104 197 0 3 -438 6 -974 6 l-974 0 132
-242z"/>
<path d="M1795 4139 c-287 -26 -500 -184 -593 -441 -24 -66 -27 -86 -26 -213
0 -127 2 -147 27 -215 81 -223 268 -378 512 -425 125 -24 319 -6 435 41 175
70 312 214 370 388 116 349 -61 710 -406 825 -102 34 -218 49 -319 40z"/>
<path d="M4660 4008 c0 -65 3 -119 8 -119 4 -1 95 -2 202 -3 l195 -1 3 -518 2
-517 48 -1 c26 0 92 0 147 -1 l100 0 0 516 c0 337 3 516 10 517 6 1 96 3 200
4 105 1 192 3 195 4 3 0 6 54 5 119 l-1 117 -557 0 -557 0 0 -117z"/>
<path d="M6021 4115 c-9 -13 -8 -1251 2 -1261 4 -4 70 -8 147 -8 l140 -1 0
263 c0 203 3 262 13 263 73 3 559 1 563 -3 3 -3 5 -121 5 -262 l1 -256 94 -1
c52 0 112 -1 134 -1 22 0 47 1 55 1 13 1 15 79 15 636 0 349 -3 636 -7 636 -5
1 -72 2 -150 3 l-142 1 0 -210 c0 -115 0 -228 -1 -251 l0 -41 -290 0 -290 0 0
251 0 251 -141 0 c-83 0 -143 -4 -148 -10z"/>
<path d="M7575 4120 c-2 -3 -3 -290 -3 -637 l0 -633 31 -1 c133 -2 950 1 955
5 4 2 7 55 6 118 l-1 113 -334 1 c-184 1 -341 2 -349 3 -12 1 -15 19 -13 104
1 56 2 121 2 145 l1 42 295 0 295 0 0 115 0 115 -297 0 -298 0 2 67 c1 38 2
100 2 140 l1 72 283 0 c155 0 306 0 335 0 l53 1 -3 118 -3 117 -478 0 c-264 0
-480 -2 -482 -5z"/>
<path d="M2859 4098 c0 -13 -1 -297 -1 -633 l-1 -610 147 -1 146 -2 0 217 c-1
119 -1 292 0 384 l0 168 48 -58 c26 -33 168 -206 315 -386 l269 -326 119 1
119 1 0 249 c1 136 1 304 1 373 0 69 0 242 -1 385 l0 260 -145 0 -145 0 0
-382 -1 -383 -22 26 c-19 23 -402 489 -434 529 -6 8 -48 59 -93 113 l-81 97
-120 0 c-117 0 -119 0 -120 -22z"/>
<path d="M4608 2275 c-2 -2 -27 -6 -55 -9 -119 -13 -281 -89 -377 -177 -154
-140 -227 -314 -222 -526 4 -145 14 -188 75 -313 48 -100 175 -230 276 -282
136 -71 232 -93 400 -92 135 0 236 25 354 85 273 139 409 409 367 726 -37 274
-242 492 -535 568 -55 14 -273 30 -283 20z"/>
<path d="M6290 2269 c-76 -13 -94 -18 -154 -39 -237 -81 -415 -291 -453 -535
-8 -52 -9 -179 0 -230 15 -94 21 -115 64 -204 96 -202 297 -344 533 -378 58
-9 179 -9 256 -1 130 14 274 81 372 172 l64 60 -40 35 c-22 20 -67 62 -101 94
l-62 57 -40 -37 c-87 -80 -167 -114 -284 -119 -140 -6 -244 33 -332 123 -144
147 -163 394 -43 569 141 204 477 231 659 53 l39 -39 67 63 c37 34 83 76 101
92 l34 30 -39 41 c-86 92 -229 164 -371 189 -57 10 -222 12 -270 4z"/>
<path d="M1247 2252 c-16 -3 -17 -54 -17 -680 l0 -677 408 1 c224 0 427 4 452
8 153 26 279 92 330 173 39 61 52 112 52 193 -1 142 -74 257 -201 314 -41 19
-41 19 -19 34 140 93 192 265 125 413 -60 133 -213 210 -434 218 -107 4 -678
6 -696 3z m743 -255 c75 -33 115 -108 96 -180 -14 -56 -79 -104 -154 -113 -33
-4 -294 -8 -364 -5 l-28 1 1 159 1 159 206 -3 c161 -2 215 -6 242 -18z m52
-546 c52 -16 104 -72 111 -118 14 -84 -12 -134 -89 -173 -48 -24 -56 -25 -287
-27 l-237 -2 1 163 c0 90 3 167 6 170 10 10 458 -1 495 -13z"/>
<path d="M2810 2252 c-7 -3 -10 -237 -10 -680 l0 -677 498 0 497 0 0 127 0
128 -35 1 c-19 0 -172 1 -340 2 l-305 2 0 547 0 548 -25 1 c-98 3 -272 3 -280
1z"/>
<path d="M7290 2252 l-25 -3 2 -642 c1 -353 2 -658 2 -677 l1 -35 153 0 152 0
5 176 5 177 89 90 89 91 96 -118 c53 -65 108 -134 123 -152 15 -19 69 -86 121
-149 l94 -115 176 0 c98 0 177 3 177 8 0 8 -55 81 -133 177 -15 18 -426 540
-440 557 -9 13 14 39 384 433 135 144 159 171 159 179 0 5 -65 6 -292 2 -35
-1 -53 -7 -70 -24 -13 -13 -99 -104 -193 -202 -93 -99 -218 -229 -277 -290
l-107 -110 -1 313 c0 171 -3 312 -7 313 -38 2 -264 3 -283 1z"/>
</g>
</svg>
