<svg viewBox="0 0 324.6064 83.7701" xmlns="http://www.w3.org/2000/svg"><g fill="#ff1919"><path d="m60.4992 49.4579a24.96 24.96 0 0 1 1.7885-7.99l2.5042-6.3205c-3.3175 4.3052-10.9609 7.9226-15.4419.1226l1.7939-9.8421c5.9537 10.2336 13.7492-.5962 20.2208-.5962 3.7969 0 5.95.3345 5.95 5.3061a11.76 11.76 0 0 1 -.7751 3.6383l-2.8622 7.81c-1.2526 3.399-1.312 4.1148-1.312 4.6517a2.1829 2.1829 0 0 0 2.445 2.5043c5.1262.089 8.3915-4.679 12.9472-13.2843l.2772 13.67c-2.5456 3.859-5.7235 9.9892-16.7431 9.9892-6.6787.0002-10.7925-2.8017-10.7925-9.6591zm9.48-40.2494h10.2524l-1.3077 10.375h-11.6277z"/><path d="m124.7082 46.341c-5.0619 9.3646-15.5233 12.7168-23.7305 12.7168-8.6458 0-15.4439-4.2928-15.4439-14.3109 0-11.9855 9.0631-19.9156 19.4391-19.9156 7.5732 0 11.8066 3.5177 11.8066 9.0037a8.8987 8.8987 0 0 1 -2.5646 6.2612c-1.6689 1.7885-4.77 3.5177-9.3013 5.2468l-6.3808 2.3856c1.2526 1.1923 3.34 1.55 5.7837 1.55 8.665 0 17.0172-7.5781 22.1635-14.9179zm-27.785-4.1577 6.0822-2.5646c2.9215-1.2516 4.3521-2.0871 4.3521-3.8162 0-1.3713-.9541-2.2057-2.6832-2.2057-3.8756 0-7.4535 3.3387-7.7511 8.5866z"/><path d="m219.16 54.4072c-2.5636 3.399-5.1282 4.77-8.5272 4.77a7.35 7.35 0 0 1 -5.4258-2.5043c-1.55-1.73-2.3253-4.3531-2.3253-7.931 0-13.7147 7.4535-24.03 19.2-24.03a19.4428 19.4428 0 0 1 9.5406 2.2067l1.55-1.4909h6.2019l-4.9492 17.59c-.9541 3.34-1.0134 4.1148-1.0134 4.6507 0 .7751.4172 1.0737 1.311 1.0737 1.133 0 2.5053-.5368 4.4727-2.266l-2.8029 10.4353a13.6837 13.6837 0 0 1 -7.5722 2.2057c-4.8306 0-7.1559-2.7425-7.1559-7.8114v-.2383zm-3.7569-5.1885c.7751 0 1.133-.3569 3.0411-2.2057l5.3665-5.1875 2.0277-8.05a11.9113 11.9113 0 0 0 -2.6239-.2393c-5.0086 0-8.7052 6.977-8.7052 13.3568.0001 1.6702.357 2.3257.8938 2.3257z"/><path d="m244.713 46.8933h13.1176l-3.1 11.3894h-13.119z"/><path d="m45.0315 14.3951c-2.0065 11.8438-6.6028 20.6471-12.82 27.5481l.5359-27.5482h-13.1174c-.826 4.2087-7.9137 8.7675-13.343 10.4363l6.05 8.3407a23.3175 23.3175 0 0 0 7.8163-3.812l1.0267 29.3389h12.7607a102.61 102.61 0 0 0 24.7452-44.3038z"/><path d="m163.5259 53.5229c-2.3253 1.49-7.419 5.9522-15.1469 5.9522-4.2928 0-7.4535-2.6239-7.4535-7.5722a18.1737 18.1737 0 0 1 1.1923-5.844l2.2067-5.7837a18.098 18.098 0 0 0 1.1923-4.1148c0-.5368-.2383-.8947-.7751-.8947a1.7363 1.7363 0 0 0 -1.1923.7158q-.6258.6258-2.6832 3.22l-6.977 8.7655-2.8019 10.3157h-11.27l8.8841-32.8552h11.27l-3.1 11.4487 3.4583-5.1282c3.9952-6.0822 6.9167-6.9167 10.0181-6.9167 3.8756 0 6.8574 2.3253 6.8574 7.7511a24.3609 24.3609 0 0 1 -1.7895 7.6325l-1.55 4.2344c-.9541 2.6229-1.0737 3.1-1.0737 3.577 0 .7751.4182 1.0737 1.3723 1.0737 4.5078 0 9.5047-4.6958 11.0719-7.9729z"/><path d="m203.7691 53.5229c-2.3253 1.49-7.419 5.9522-15.1469 5.9522-4.2928 0-7.4535-2.6239-7.4535-7.5722a18.1737 18.1737 0 0 1 1.1923-5.844l2.2067-5.7837a18.098 18.098 0 0 0 1.1923-4.1152c0-.5368-.2383-.8947-.7751-.8947a1.7363 1.7363 0 0 0 -1.1923.7158q-.6258.6258-2.6832 3.22l-6.977 8.7655-2.8019 10.3157h-11.27l8.8841-32.8552h11.27l-3.1 11.4487 3.4583-5.1282c3.9952-6.0822 6.9167-6.9167 10.0181-6.9167 3.8756 0 6.8574 2.3253 6.8574 7.7511a24.3609 24.3609 0 0 1 -1.7895 7.6325l-1.55 4.2344c-.9541 2.6229-1.0737 3.1-1.0737 3.577 0 .7751.4182 1.0737 1.3723 1.0737 4.5078 0 9.5047-4.6958 11.0719-7.9729z"/><path d="m246.4738 78.3561-2.3847-11.508c3.3387 1.9674 5.3665 2.5636 8.7052 2.5636 4.711 0 7.1559-2.2057 8.1693-6.26l7.7475-28.0044c-3.6373 1.2516-7.0956 3.16-11.9262 7.3942l3.4593-12.88c4.2928-3.2794 8.288-4.83 12.9989-4.83 5.4258 0 7.6918 1.9081 7.6918 5.5454a15.0111 15.0111 0 0 1 -.4765 3.399l-5.4268 21.5855c-1.3713 5.4851-5.779 17.27-8.6412 20.193s-6.9177 4.4124-12.2238 4.4124a15.3521 15.3521 0 0 1 -7.6928-1.6107zm27.7234-69.1476h11.687l-2.7425 10.375h-11.6278z"/><path d="m315.7546 55.4206c-2.7425 2.445-6.4392 3.6966-11.0908 3.6966-5.0086 0-8.6458-1.133-11.8066-3.2794l.8354-10.1961c3.8756 3.2794 7.0956 4.532 10.9119 4.532 3.1608 0 4.77-1.4316 4.77-3.578a11.5349 11.5349 0 0 0 -.5368-2.8029 47.844 47.844 0 0 0 -2.5636-6.2612l-.5962-1.2516c-9.112 11.0458-20.932 19.1394-34.2641 25.5848l5.1791-14.3863a129.9524 129.9524 0 0 0 34.0938-30.6375l6.798 5.4861-4.1741 4.9492 3.2794 7.0353a39.5345 39.5345 0 0 1 2.6832 6.977 19.7626 19.7626 0 0 1 .6555 4.5913 12.0948 12.0948 0 0 1 -4.1741 9.5407z"/></g></svg>